<svg
        width="100"
        height="100"
        viewBox="0 0 100 100"
        xmlns="http://www.w3.org/2000/svg"
        fill="none"
        stroke="#000"
>
  <!-- Cat Face -->
  <circle cx="50" cy="50" r="40" fill="#fff" stroke="#000" stroke-width="2"/>

  <!-- Eyes -->
  <circle cx="35" cy="40" r="10" fill="#fff" stroke="#000" stroke-width="2"/>
  <circle cx="65" cy="40" r="10" fill="#fff" stroke="#000" stroke-width="2"/>
  <circle cx="35" cy="40" r="5" fill="#000"/>
  <circle cx="65" cy="40" r="5" fill="#000"/>

  <!-- Nose -->
  <circle cx="50" cy="55" r="7" fill="#fff" stroke="#000" stroke-width="2"/>

  <!-- Mouth -->
  <path
          d="M45 60Q50 65 55 60"
          stroke="#000"
          stroke-width="2"
          stroke-linecap="round"
          fill="none"
  />
  <path
          d="M50 60Q52 62 54 60"
          stroke="#000"
          stroke-width="2"
          stroke-linecap="round"
          fill="none"
  />

  <!-- Cat Ears -->
  <path
          d="M20 40L10 10L30 20L20 40Z"
          fill="#fff"
          stroke="#000"
          stroke-width="2"
  />
  <path
          d="M80 40L90 10L70 20L80 40Z"
          fill="#fff"
          stroke="#000"
          stroke-width="2"
  />

  <!-- Inner Ears -->
  <path
          d="M20 30L15 20L25 25L20 30Z"
          fill="#fff"
          stroke="#000"
          stroke-width="2"
  />
  <path
          d="M80 30L85 20L75 25L80 30Z"
          fill="#fff"
          stroke="#000"
          stroke-width="2"
  />

  <!-- Whiskers -->
  <line x1="15" y1="50" x2="5" y2="50" stroke="#000" stroke-width="2"/>
  <line x1="15" y1="55" x2="5" y2="60" stroke="#000" stroke-width="2"/>
  <line x1="15" y1="45" x2="5" y2="40" stroke="#000" stroke-width="2"/>
  <line x1="85" y1="50" x2="95" y2="50" stroke="#000" stroke-width="2"/>
  <line x1="85" y1="55" x2="95" y2="60" stroke="#000" stroke-width="2"/>
  <line x1="85" y1="45" x2="95" y2="40" stroke="#000" stroke-width="2"/>
</svg>
